<svg width="130" height="23" viewBox="0 0 130 23" fill="none" xmlns="http://www.w3.org/2000/svg">
<path d="M0.35 11.35C0.35 8.29 1.45 5.75 3.65 3.73C5.87 1.69 8.48 0.669999 11.48 0.669999C13.28 0.669999 14.95 1.29 16.49 2.53C16.65 2.67 16.73 2.85 16.73 3.07C16.73 3.39 16.6 3.69 16.34 3.97C16.08 4.23 15.81 4.36 15.53 4.36C15.33 4.36 15.16 4.29 15.02 4.15C14.06 3.31 12.86 2.89 11.42 2.89C8.8 2.89 6.67 3.74 5.03 5.44C3.41 7.12 2.6 9.08 2.6 11.32C2.6 13.62 3.4 15.65 5 17.41C6.6 19.17 8.75 20.05 11.45 20.05C13.21 20.05 14.64 19.42 15.74 18.16C15.96 17.94 16.15 17.83 16.31 17.83C16.61 17.83 16.9 17.98 17.18 18.28C17.46 18.58 17.6 18.87 17.6 19.15C17.6 19.33 17.53 19.49 17.39 19.63C15.85 21.39 13.92 22.27 11.6 22.27C9.3 22.27 7.28 21.75 5.54 20.71C3.8 19.65 2.5 18.31 1.64 16.69C0.78 15.05 0.35 13.27 0.35 11.35ZM19.3295 16.54C19.3295 13.86 20.3795 11.55 22.4795 9.61C24.5795 7.67 26.9595 6.7 29.6195 6.7C31.4395 6.7 32.9895 7.39 34.2695 8.77C35.5495 10.15 36.1895 11.72 36.1895 13.48L36.1595 21.34C36.1595 21.6 36.0295 21.81 35.7695 21.97C35.5295 22.11 35.2595 22.18 34.9595 22.18C34.2995 22.18 33.9695 21.9 33.9695 21.34V16.27C32.3495 18.37 30.7995 19.89 29.3195 20.83C27.8595 21.77 26.3495 22.24 24.7895 22.24C23.3495 22.24 22.0795 21.66 20.9795 20.5C19.8795 19.32 19.3295 18 19.3295 16.54ZM21.4895 16.6C21.4895 17.74 21.8895 18.61 22.6895 19.21C23.4895 19.79 24.3395 20.08 25.2395 20.08C26.2795 20.08 27.4695 19.57 28.8095 18.55C30.1495 17.51 31.2595 16.36 32.1395 15.1C33.0395 13.82 33.4895 12.82 33.4895 12.1C33.4895 11.5 33.3095 10.97 32.9495 10.51C32.6095 10.03 32.1795 9.68 31.6595 9.46C31.1595 9.24 30.6995 9.08 30.2795 8.98C29.8595 8.86 29.5095 8.8 29.2295 8.8C27.2695 8.8 25.4895 9.59 23.8895 11.17C22.2895 12.73 21.4895 14.54 21.4895 16.6ZM39.5298 21.16V7.87C39.5298 7.33 39.9098 7.06 40.6698 7.06C40.9698 7.06 41.2198 7.13 41.4198 7.27C41.6398 7.41 41.7498 7.61 41.7498 7.87V11.62C42.5098 9.98 43.3498 8.74 44.2698 7.9C45.2098 7.06 46.4498 6.64 47.9898 6.64C49.0698 6.64 50.1598 6.78 51.2598 7.06C51.8398 7.34 52.1298 7.72 52.1298 8.2C52.1298 8.54 52.0598 8.78 51.9198 8.92C51.7798 9.06 51.5498 9.15 51.2298 9.19C50.2098 8.95 49.3798 8.83 48.7398 8.83C47.2598 8.83 45.9098 9.56 44.6898 11.02C43.4698 12.48 42.4898 14.38 41.7498 16.72V21.16C41.7498 21.42 41.6398 21.63 41.4198 21.79C41.1998 21.93 40.9398 22 40.6398 22C39.8998 22 39.5298 21.72 39.5298 21.16ZM61.8638 21.19V1.84C61.8638 1.28 62.2338 0.999999 62.9738 0.999999C63.6738 0.999999 64.0238 1.43 64.0238 2.29C66.0838 1.41 68.0738 0.969999 69.9938 0.969999C72.7138 0.969999 74.7138 1.62 75.9938 2.92C77.2738 4.22 77.9138 5.86 77.9138 7.84C77.9138 10.64 76.4638 12.5 73.5638 13.42L78.5738 20.65C78.6938 20.87 78.7538 21.06 78.7538 21.22C78.7538 21.46 78.6538 21.65 78.4538 21.79C78.2738 21.93 78.0338 22 77.7338 22C77.1138 22 76.6238 21.75 76.2638 21.25L71.2838 13.93C70.2838 14.07 69.0938 14.14 67.7138 14.14C67.3138 14.14 66.7038 14.11 65.8838 14.05C65.0838 13.99 64.4838 13.96 64.0838 13.96V21.19C64.0838 21.45 63.9738 21.65 63.7538 21.79C63.5538 21.93 63.3038 22 63.0038 22C62.2438 22 61.8638 21.73 61.8638 21.19ZM64.0838 11.38C64.9038 11.64 66.5538 11.77 69.0338 11.77C71.0338 11.77 72.6438 11.42 73.8638 10.72C75.0838 10 75.6938 8.93 75.6938 7.51C75.6938 6.29 75.2038 5.27 74.2238 4.45C73.2438 3.61 71.7338 3.19 69.6938 3.19C67.9338 3.19 66.0638 3.72 64.0838 4.78V11.38ZM80.8236 14.08C80.8236 12.8 81.1036 11.66 81.6636 10.66C82.2236 9.66 82.9636 8.87 83.8836 8.29C84.8036 7.71 85.7936 7.28 86.8536 7C87.9136 6.7 88.9936 6.55 90.0936 6.55C92.0536 6.55 93.5736 6.98 94.6536 7.84C95.7336 8.68 96.2736 9.72 96.2736 10.96C96.2736 12.3 95.6436 13.44 94.3836 14.38C93.1236 15.32 91.3336 15.79 89.0136 15.79C86.9336 15.79 84.9536 15.49 83.0736 14.89C83.2936 16.37 83.9836 17.61 85.1436 18.61C86.3036 19.61 87.7336 20.11 89.4336 20.11C90.3336 20.11 91.2636 19.97 92.2236 19.69C93.2036 19.41 93.9736 19.01 94.5336 18.49C94.6136 18.33 94.7736 18.25 95.0136 18.25C95.2936 18.25 95.5936 18.38 95.9136 18.64C96.2336 18.88 96.3936 19.13 96.3936 19.39C95.8936 20.41 94.9136 21.16 93.4536 21.64C92.0136 22.1 90.6136 22.33 89.2536 22.33C86.7936 22.33 84.7736 21.52 83.1936 19.9C81.6136 18.28 80.8236 16.34 80.8236 14.08ZM83.1936 12.58C84.6936 13.24 86.5536 13.57 88.7736 13.57C90.5136 13.57 91.8336 13.3 92.7336 12.76C93.6336 12.2 94.0836 11.58 94.0836 10.9C94.0836 10.3 93.7036 9.8 92.9436 9.4C92.2036 8.98 91.0936 8.77 89.6136 8.77C88.0136 8.77 86.6736 9.13 85.5936 9.85C84.5336 10.55 83.7336 11.46 83.1936 12.58ZM99.3547 21.22V7.81C99.3547 7.55 99.4547 7.35 99.6547 7.21C99.8747 7.07 100.135 7 100.435 7C101.195 7 101.575 7.27 101.575 7.81V10.18C102.575 9.1 103.785 8.25 105.205 7.63C106.625 6.99 108.065 6.67 109.525 6.67C111.405 6.67 112.975 7.26 114.235 8.44C115.515 9.6 116.155 11.12 116.155 13C116.155 13.18 116.145 14.1 116.125 15.76C116.125 17.4 116.125 19.2 116.125 21.16C116.125 21.42 116.015 21.63 115.795 21.79C115.575 21.93 115.315 22 115.015 22C114.275 22 113.905 21.72 113.905 21.16V13.27C113.905 11.85 113.395 10.76 112.375 10C111.375 9.24 110.335 8.86 109.255 8.86C107.795 8.86 106.295 9.35 104.755 10.33C103.235 11.29 102.175 12.51 101.575 13.99V21.22C101.575 21.76 101.195 22.03 100.435 22.03C100.135 22.03 99.8747 21.96 99.6547 21.82C99.4547 21.68 99.3547 21.48 99.3547 21.22ZM118.433 8.11C118.433 7.81 118.503 7.55 118.643 7.33C118.803 7.11 119.013 7 119.273 7H120.293V3.31C120.293 3.05 120.393 2.85 120.593 2.71C120.813 2.57 121.073 2.5 121.373 2.5C122.133 2.5 122.513 2.77 122.513 3.31V7H127.313C127.573 7 127.773 7.11 127.913 7.33C128.053 7.53 128.123 7.78 128.123 8.08C128.123 8.84 127.853 9.22 127.313 9.22H122.513V16.39C122.513 18.63 123.363 19.75 125.063 19.75C125.783 19.75 126.403 19.55 126.923 19.15C127.463 18.75 127.733 18.05 127.733 17.05C127.733 16.77 127.843 16.54 128.063 16.36C128.303 16.18 128.583 16.09 128.903 16.09C129.203 16.09 129.453 16.18 129.653 16.36C129.853 16.52 129.953 16.76 129.953 17.08C129.933 18.66 129.453 19.87 128.513 20.71C127.593 21.55 126.443 21.97 125.063 21.97C121.883 21.97 120.293 19.84 120.293 15.58V9.22H119.273C118.713 9.22 118.433 8.85 118.433 8.11Z" fill="#171717"/>
</svg>
